# xmcd
#
# Track frame offsets:
#	150
#	7223
#	22004
#	34449
#	53466
#	66205
#	78125
#	86355
#	101445
#	121175
#	134903
#	146596
#	158514
#	177339
#
# Disc length: 2617 seconds
#
# Revision: 0
# Processed by: cddbd v1.5.2PL0 Copyright (c) Steve Scherf et al.
# Submitted via: dBpowerAMP V4.0
#
DISCID=b50a370e
DTITLE=Hillstomp - Darker The Night
DYEAR=2010
DGENRE=Blues
TTITLE0=Hammer Ring
TTITLE1=Banjo Song #1
TTITLE2=Cardiac Arrest In D
TTITLE3=Jumper On The Line
TTITLE4=Cold Dark Woods
TTITLE5=Crawdad Hole
TTITLE6=Blue Tick
TTITLE7=Darker The Night
TTITLE8=Little Angel Child
TTITLE9=Up Here
TTITLE10=S.I.R.
TTITLE11=Old Plank Road
TTITLE12=Banjo Song #2
TTITLE13=You Got To Move
EXTD=
EXTT0=
EXTT1=
EXTT2=
EXTT3=
EXTT4=
EXTT5=
EXTT6=
EXTT7=
EXTT8=
EXTT9=
EXTT10=
EXTT11=
EXTT12=
EXTT13=
PLAYORDER=
